<svg width="1403" height="3795" viewBox="0 0 1403 3795" fill="none" xmlns="http://www.w3.org/2000/svg">
<path d="M1245.5 1800.5C1319 1439 953.8 1357.1 835 1403.5C686.5 1461.5 726 1291 620 1188C514 1085 268.5 1261.5 156.5 1240.5C66.8997 1223.7 241.5 998.13 341.5 968C443.833 937.167 616 733 462 575C228.4 309.8 631.5 80.5 863 1" stroke="#40659A"/>
<path d="M1245.5 1800C1233.5 1855.5 1120.9 1947.6 732.5 1846C344.1 1744.4 131.667 1871.33 74 1947.5C31.2234 2004 -211.5 2309.5 522.5 2459.5C751.5 2506.3 1515.5 2578.5 1122.5 3148.5C1068.82 3211 980.7 3371.7 821.5 3394.5C662.3 3417.3 681.833 3559 711.5 3627" stroke="#40659A"/>
<circle cx="256.5" cy="1881.5" r="98" stroke="white"/>
<circle cx="975" cy="1350" r="57.5" stroke="white"/>
<circle cx="387.5" cy="448.5" r="178" stroke="white" stroke-opacity="0.6"/>
<circle cx="1076" cy="3468" r="326.5" stroke="white"/>
</svg>
