<svg width="30" height="30" viewBox="0 0 30 30" fill="none" xmlns="http://www.w3.org/2000/svg">
<path d="M8.25 9C9.44347 9 10.5881 8.52589 11.432 7.68198C12.2759 6.83807 12.75 5.69347 12.75 4.5C12.75 3.30653 12.2759 2.16193 11.432 1.31802C10.5881 0.474106 9.44347 0 8.25 0C7.05653 0 5.91193 0.474106 5.06802 1.31802C4.22411 2.16193 3.75 3.30653 3.75 4.5C3.75 5.69347 4.22411 6.83807 5.06802 7.68198C5.91193 8.52589 7.05653 9 8.25 9ZM0 13.152C0 11.685 1.1865 10.5 2.652 10.5H9.8025C9.27511 11.4117 8.99824 12.4467 9 13.5C8.99899 14.3514 9.17963 15.1932 9.52987 15.9692C9.88011 16.7452 10.3919 17.4375 11.031 18H9.402C8.5566 18 7.73132 18.2579 7.03635 18.7393C6.34137 19.2207 5.80976 19.9026 5.5125 20.694C3.2655 20.145 1.872 18.9195 1.0515 17.5545C0 15.804 0 14.004 0 13.6905V13.152ZM21 13.5C21.0018 12.4467 20.725 11.4117 20.1975 10.5H27.348C28.815 10.5 30 11.6865 30 13.152V13.692C30 14.0025 30 15.804 28.95 17.5545C28.128 18.9195 26.7345 20.145 24.4875 20.694C24.1904 19.9025 23.6589 19.2204 22.9638 18.739C22.2688 18.2577 21.4435 17.9998 20.598 18H18.969C19.6081 17.4375 20.1199 16.7452 20.4701 15.9692C20.8204 15.1932 21.001 14.3514 21 13.5ZM26.25 4.5C26.25 5.69347 25.7759 6.83807 24.932 7.68198C24.0881 8.52589 22.9435 9 21.75 9C20.5565 9 19.4119 8.52589 18.568 7.68198C17.7241 6.83807 17.25 5.69347 17.25 4.5C17.25 3.30653 17.7241 2.16193 18.568 1.31802C19.4119 0.474106 20.5565 0 21.75 0C22.9435 0 24.0881 0.474106 24.932 1.31802C25.7759 2.16193 26.25 3.30653 26.25 4.5ZM6.75 22.152C6.75 20.685 7.9365 19.5 9.402 19.5H20.598C22.0635 19.5 23.25 20.6865 23.25 22.152V22.692C23.25 23.0025 23.25 24.804 22.2 26.5545C21.0855 28.4055 18.9195 30 15 30C11.0805 30 8.913 28.4055 7.8 26.5545C6.75 24.804 6.75 23.004 6.75 22.6905V22.152ZM15 18C15.5909 18 16.1761 17.8836 16.7221 17.6575C17.268 17.4313 17.7641 17.0998 18.182 16.682C18.5998 16.2641 18.9313 15.768 19.1575 15.2221C19.3836 14.6761 19.5 14.0909 19.5 13.5C19.5 12.9091 19.3836 12.3239 19.1575 11.7779C18.9313 11.232 18.5998 10.7359 18.182 10.318C17.7641 9.90016 17.268 9.56869 16.7221 9.34254C16.1761 9.1164 15.5909 9 15 9C13.8065 9 12.6619 9.4741 11.818 10.318C10.9741 11.1619 10.5 12.3065 10.5 13.5C10.5 14.6935 10.9741 15.8381 11.818 16.682C12.6619 17.5259 13.8065 18 15 18Z" fill="#40659A"/>
</svg>
