<svg width="21" height="21" viewBox="0 0 21 21" fill="none" xmlns="http://www.w3.org/2000/svg">
<path d="M20.6901 15.3408C20.085 14.3755 19.1856 11.6444 19.1856 8.07727C19.1856 5.93505 18.2668 3.88056 16.6312 2.36578C14.9956 0.850996 12.7773 0 10.4643 0C8.15128 0 5.93298 0.850996 4.29741 2.36578C2.66185 3.88056 1.743 5.93505 1.743 8.07727C1.743 11.6454 0.842523 14.3755 0.237482 15.3408C0.082974 15.5862 0.00106323 15.8649 1.02813e-05 16.149C-0.00104267 16.4331 0.0787996 16.7124 0.231485 16.9587C0.384171 17.2051 0.6043 17.4098 0.869674 17.5523C1.13505 17.6947 1.43628 17.7698 1.743 17.77H6.19196C6.39317 18.6819 6.92828 19.5014 7.70678 20.09C8.48527 20.6785 9.45937 21 10.4643 21C11.4693 21 12.4433 20.6785 13.2218 20.09C14.0003 19.5014 14.5355 18.6819 14.7367 17.77H19.1856C19.4922 17.7696 19.7933 17.6944 20.0586 17.5519C20.3238 17.4094 20.5438 17.2046 20.6963 16.9583C20.8489 16.712 20.9286 16.4327 20.9275 16.1487C20.9264 15.8648 20.8445 15.5861 20.6901 15.3408ZM10.4643 19.3855C9.9234 19.3853 9.39582 19.2299 8.95422 18.9406C8.51261 18.6513 8.17867 18.2423 7.99836 17.77H12.9303C12.75 18.2423 12.416 18.6513 11.9744 18.9406C11.5328 19.2299 11.0052 19.3853 10.4643 19.3855ZM1.743 16.1545C2.58243 14.8178 3.48726 11.7201 3.48726 8.07727C3.48726 6.36349 4.22234 4.7199 5.53079 3.50808C6.83924 2.29625 8.61388 1.61545 10.4643 1.61545C12.3147 1.61545 14.0894 2.29625 15.3978 3.50808C16.7063 4.7199 17.4414 6.36349 17.4414 8.07727C17.4414 11.7171 18.344 14.8147 19.1856 16.1545H1.743Z" fill="#FFF06C"/>
</svg>
