<svg width="30" height="30" viewBox="0 0 30 30" fill="none" xmlns="http://www.w3.org/2000/svg">
<path d="M1.66667 16.6667H11.6667C12.1087 16.6667 12.5326 16.4911 12.8452 16.1785C13.1577 15.8659 13.3333 15.442 13.3333 15V1.66667C13.3333 1.22464 13.1577 0.800716 12.8452 0.488155C12.5326 0.175595 12.1087 0 11.6667 0H1.66667C1.22464 0 0.800716 0.175595 0.488155 0.488155C0.175595 0.800716 0 1.22464 0 1.66667V15C0 15.442 0.175595 15.8659 0.488155 16.1785C0.800716 16.4911 1.22464 16.6667 1.66667 16.6667ZM0 28.3333C0 28.7754 0.175595 29.1993 0.488155 29.5118C0.800716 29.8244 1.22464 30 1.66667 30H11.6667C12.1087 30 12.5326 29.8244 12.8452 29.5118C13.1577 29.1993 13.3333 28.7754 13.3333 28.3333V21.6667C13.3333 21.2246 13.1577 20.8007 12.8452 20.4882C12.5326 20.1756 12.1087 20 11.6667 20H1.66667C1.22464 20 0.800716 20.1756 0.488155 20.4882C0.175595 20.8007 0 21.2246 0 21.6667V28.3333ZM16.6667 28.3333C16.6667 28.7754 16.8423 29.1993 17.1548 29.5118C17.4674 29.8244 17.8913 30 18.3333 30H28.3333C28.7754 30 29.1993 29.8244 29.5118 29.5118C29.8244 29.1993 30 28.7754 30 28.3333V16.6667C30 16.2246 29.8244 15.8007 29.5118 15.4882C29.1993 15.1756 28.7754 15 28.3333 15H18.3333C17.8913 15 17.4674 15.1756 17.1548 15.4882C16.8423 15.8007 16.6667 16.2246 16.6667 16.6667V28.3333ZM18.3333 11.6667H28.3333C28.7754 11.6667 29.1993 11.4911 29.5118 11.1785C29.8244 10.8659 30 10.442 30 10V1.66667C30 1.22464 29.8244 0.800716 29.5118 0.488155C29.1993 0.175595 28.7754 0 28.3333 0H18.3333C17.8913 0 17.4674 0.175595 17.1548 0.488155C16.8423 0.800716 16.6667 1.22464 16.6667 1.66667V10C16.6667 10.442 16.8423 10.8659 17.1548 11.1785C17.4674 11.4911 17.8913 11.6667 18.3333 11.6667Z" fill="#40659A"/>
</svg>
