<svg width="36" height="29" viewBox="0 0 36 29" fill="none" xmlns="http://www.w3.org/2000/svg">
<path d="M21.6 17.2188C22.3161 17.2188 23.0028 16.9323 23.5092 16.4224C24.0155 15.9126 24.3 15.2211 24.3 14.5C24.3 13.7789 24.0155 13.0874 23.5092 12.5776C23.0028 12.0677 22.3161 11.7812 21.6 11.7812C20.8839 11.7812 20.1972 12.0677 19.6908 12.5776C19.1845 13.0874 18.9 13.7789 18.9 14.5C18.9 15.2211 19.1845 15.9126 19.6908 16.4224C20.1972 16.9323 20.8839 17.2188 21.6 17.2188ZM0 6.79688C0 4.99423 0.711159 3.26542 1.97703 1.99076C3.2429 0.716097 4.95979 0 6.75 0H29.25C31.0402 0 32.7571 0.716097 34.023 1.99076C35.2888 3.26542 36 4.99423 36 6.79688V22.2031C36 24.0058 35.2888 25.7346 34.023 27.0092C32.7571 28.2839 31.0402 29 29.25 29H6.75C4.95979 29 3.2429 28.2839 1.97703 27.0092C0.711159 25.7346 0 24.0058 0 22.2031V6.79688ZM6.75 5.4375C6.39196 5.4375 6.04858 5.58072 5.79541 5.83565C5.54223 6.09058 5.4 6.43635 5.4 6.79688V22.2031C5.4 22.5637 5.54223 22.9094 5.79541 23.1643C6.04858 23.4193 6.39196 23.5625 6.75 23.5625C7.10804 23.5625 7.45142 23.4193 7.70459 23.1643C7.95777 22.9094 8.1 22.5637 8.1 22.2031V6.79688C8.1 6.43635 7.95777 6.09058 7.70459 5.83565C7.45142 5.58072 7.10804 5.4375 6.75 5.4375ZM16.704 7.64875C16.5804 7.51519 16.4314 7.40807 16.2658 7.33377C16.1002 7.25947 15.9214 7.21952 15.7401 7.2163C15.5589 7.21308 15.3788 7.24666 15.2107 7.31503C15.0426 7.3834 14.8899 7.48516 14.7617 7.61424C14.6335 7.74333 14.5325 7.89709 14.4646 8.06635C14.3967 8.23562 14.3633 8.41692 14.3665 8.59945C14.3697 8.78197 14.4094 8.96198 14.4832 9.12873C14.557 9.29547 14.6634 9.44555 14.796 9.57L16.947 11.7378C16.4562 12.5743 16.1982 13.5284 16.2 14.5C16.2 15.5077 16.4718 16.4521 16.947 17.2623L14.796 19.43C14.6634 19.5545 14.557 19.7045 14.4832 19.8713C14.4094 20.038 14.3697 20.218 14.3665 20.4006C14.3633 20.5831 14.3967 20.7644 14.4646 20.9336C14.5325 21.1029 14.6335 21.2567 14.7617 21.3858C14.8899 21.5148 15.0426 21.6166 15.2107 21.685C15.3788 21.7533 15.5589 21.7869 15.7401 21.7837C15.9214 21.7805 16.1002 21.7405 16.2658 21.6662C16.4314 21.5919 16.5804 21.4848 16.704 21.3512L18.8568 19.1853C19.6614 19.6638 20.5992 19.9375 21.6 19.9375C22.6008 19.9375 23.5386 19.6638 24.3432 19.1853L26.496 21.3512C26.6196 21.4848 26.7686 21.5919 26.9342 21.6662C27.0998 21.7405 27.2786 21.7805 27.4599 21.7837C27.6411 21.7869 27.8212 21.7533 27.9893 21.685C28.1574 21.6166 28.3101 21.5148 28.4383 21.3858C28.5665 21.2567 28.6675 21.1029 28.7354 20.9336C28.8033 20.7644 28.8367 20.5831 28.8335 20.4006C28.8303 20.218 28.7906 20.038 28.7168 19.8713C28.643 19.7045 28.5366 19.5545 28.404 19.43L26.253 17.2623C26.7282 16.4521 27 15.5077 27 14.5C27 13.4923 26.7282 12.5479 26.253 11.7378L28.404 9.57C28.6425 9.31231 28.7723 8.97147 28.7661 8.6193C28.7599 8.26713 28.6183 7.93112 28.3709 7.68206C28.1236 7.433 27.7899 7.29033 27.4401 7.28412C27.0904 7.27791 26.7519 7.40863 26.496 7.64875L24.3432 9.81469C23.5124 9.32057 22.5649 9.06075 21.6 9.0625C20.5992 9.0625 19.6614 9.33619 18.8568 9.81469L16.704 7.64875Z" fill="#40659A"/>
</svg>
